<mxfile host="drawio-plugin" modified="2023-01-28T23:37:35.538Z" agent="5.0 (Windows NT 6.2; Win64; x64) AppleWebKit/537.36 (KHTML, like Gecko) Chrome/97.0.4692.45 Safari/537.36" etag="oZu02SOWJMTCCSKDf3Ub" version="20.5.3" type="embed"><diagram id="23iRSUPoRavnBvh4doch" name="Page-1"><mxGraphModel dx="1182" dy="855" grid="1" gridSize="10" guides="1" tooltips="1" connect="1" arrows="1" fold="1" page="1" pageScale="1" pageWidth="827" pageHeight="1169" math="0" shadow="0"><root><mxCell id="0"/><mxCell id="1" parent="0"/><mxCell id="2" value="&lt;div style=&quot;text-align: center; box-sizing: border-box; width: 100%; background: rgb(228, 228, 228); padding: 2px;&quot;&gt;&lt;b&gt;Products&lt;/b&gt;&lt;/div&gt;&lt;table style=&quot;width:100%;font-size:1em;&quot; cellpadding=&quot;2&quot; cellspacing=&quot;0&quot;&gt;&lt;tbody&gt;&lt;tr&gt;&lt;td&gt;product_id&lt;/td&gt;&lt;td style=&quot;text-align: right;&quot;&gt;int&lt;/td&gt;&lt;/tr&gt;&lt;tr&gt;&lt;td&gt;subcategory_id&lt;/td&gt;&lt;td style=&quot;text-align: right;&quot;&gt;int&lt;/td&gt;&lt;/tr&gt;&lt;tr&gt;&lt;td&gt;provider_id&lt;/td&gt;&lt;td style=&quot;text-align: right;&quot;&gt;int&lt;/td&gt;&lt;/tr&gt;&lt;tr&gt;&lt;td&gt;name&lt;/td&gt;&lt;td style=&quot;text-align: right;&quot;&gt;varchar(30)&lt;/td&gt;&lt;/tr&gt;&lt;tr&gt;&lt;td&gt;description&lt;br&gt;&lt;/td&gt;&lt;td style=&quot;text-align: right;&quot;&gt;text&lt;/td&gt;&lt;/tr&gt;&lt;tr&gt;&lt;td&gt;quantity&lt;br&gt;&lt;/td&gt;&lt;td style=&quot;text-align: right;&quot;&gt;int&lt;/td&gt;&lt;/tr&gt;&lt;tr&gt;&lt;td&gt;purchase price&lt;br&gt;&lt;/td&gt;&lt;td style=&quot;text-align: right;&quot;&gt;int&lt;/td&gt;&lt;/tr&gt;&lt;tr&gt;&lt;td&gt;sale price&lt;br&gt;&lt;/td&gt;&lt;td style=&quot;text-align: right;&quot;&gt;int&lt;/td&gt;&lt;/tr&gt;&lt;/tbody&gt;&lt;/table&gt;" style="verticalAlign=top;align=left;overflow=fill;html=1;strokeWidth=2;shadow=1;enumerate=0;comic=0;arcSize=12;" parent="1" vertex="1"><mxGeometry x="280" y="120" width="180" height="170" as="geometry"/></mxCell><mxCell id="3" value="&lt;div style=&quot;text-align: center; box-sizing: border-box; width: 100%; background: rgb(228, 228, 228); padding: 2px;&quot;&gt;&lt;b&gt;Categories&lt;/b&gt;&lt;/div&gt;&lt;table style=&quot;width:100%;font-size:1em;&quot; cellpadding=&quot;2&quot; cellspacing=&quot;0&quot;&gt;&lt;tbody&gt;&lt;tr&gt;&lt;td&gt;category_id&lt;/td&gt;&lt;td style=&quot;text-align: right;&quot;&gt;int&lt;/td&gt;&lt;/tr&gt;&lt;tr&gt;&lt;td&gt;name&lt;/td&gt;&lt;td style=&quot;text-align: right;&quot;&gt;varchar(30)&lt;/td&gt;&lt;/tr&gt;&lt;tr&gt;&lt;td&gt;description&lt;br&gt;&lt;/td&gt;&lt;td style=&quot;text-align: right;&quot;&gt;text&lt;/td&gt;&lt;/tr&gt;&lt;tr&gt;&lt;td&gt;type_id&lt;/td&gt;&lt;td style=&quot;text-align: right;&quot;&gt;int&lt;/td&gt;&lt;/tr&gt;&lt;/tbody&gt;&lt;/table&gt;" style="verticalAlign=top;align=left;overflow=fill;html=1;strokeWidth=2;shadow=1;enumerate=0;comic=0;arcSize=12;" parent="1" vertex="1"><mxGeometry x="520" y="260" width="180" height="100" as="geometry"/></mxCell><mxCell id="4" value="&lt;div style=&quot;text-align: center; box-sizing: border-box; width: 100%; background: rgb(228, 228, 228); padding: 2px;&quot;&gt;&lt;b&gt;Types&lt;/b&gt;&lt;/div&gt;&lt;table style=&quot;width:100%;font-size:1em;&quot; cellpadding=&quot;2&quot; cellspacing=&quot;0&quot;&gt;&lt;tbody&gt;&lt;tr&gt;&lt;td&gt;type_id&lt;/td&gt;&lt;td style=&quot;text-align: right;&quot;&gt;int&lt;/td&gt;&lt;/tr&gt;&lt;tr&gt;&lt;td&gt;name&lt;/td&gt;&lt;td style=&quot;text-align: right;&quot;&gt;varchar(30)&lt;/td&gt;&lt;/tr&gt;&lt;tr&gt;&lt;td&gt;description&lt;br&gt;&lt;/td&gt;&lt;td style=&quot;text-align: right;&quot;&gt;text&lt;/td&gt;&lt;/tr&gt;&lt;/tbody&gt;&lt;/table&gt;" style="verticalAlign=top;align=left;overflow=fill;html=1;strokeWidth=2;shadow=1;enumerate=0;comic=0;arcSize=12;" parent="1" vertex="1"><mxGeometry x="520" y="120" width="180" height="80" as="geometry"/></mxCell><mxCell id="5" value="&lt;div style=&quot;text-align: center; box-sizing: border-box; width: 100%; background: rgb(228, 228, 228); padding: 2px;&quot;&gt;&lt;b&gt;Subcategories&lt;/b&gt;&lt;/div&gt;&lt;table style=&quot;width:100%;font-size:1em;&quot; cellpadding=&quot;2&quot; cellspacing=&quot;0&quot;&gt;&lt;tbody&gt;&lt;tr&gt;&lt;td&gt;subcategory_id&lt;/td&gt;&lt;td style=&quot;text-align: right;&quot;&gt;int&lt;/td&gt;&lt;/tr&gt;&lt;tr&gt;&lt;td&gt;name&lt;/td&gt;&lt;td style=&quot;text-align: right;&quot;&gt;varchar(30)&lt;/td&gt;&lt;/tr&gt;&lt;tr&gt;&lt;td&gt;description&lt;br&gt;&lt;/td&gt;&lt;td style=&quot;text-align: right;&quot;&gt;text&lt;/td&gt;&lt;/tr&gt;&lt;tr&gt;&lt;td&gt;category_id&lt;/td&gt;&lt;td style=&quot;text-align: right;&quot;&gt;int&lt;/td&gt;&lt;/tr&gt;&lt;/tbody&gt;&lt;/table&gt;" style="verticalAlign=top;align=left;overflow=fill;html=1;strokeWidth=2;shadow=1;enumerate=0;comic=0;arcSize=12;" parent="1" vertex="1"><mxGeometry x="520" y="416.75" width="180" height="95.5" as="geometry"/></mxCell><mxCell id="6" value="&lt;div style=&quot;text-align: center; box-sizing: border-box; width: 100%; background: rgb(228, 228, 228); padding: 2px;&quot;&gt;&lt;b&gt;Providers&lt;/b&gt;&lt;/div&gt;&lt;table style=&quot;width:100%;font-size:1em;&quot; cellpadding=&quot;2&quot; cellspacing=&quot;0&quot;&gt;&lt;tbody&gt;&lt;tr&gt;&lt;td&gt;provider_id&lt;/td&gt;&lt;td style=&quot;text-align: right;&quot;&gt;int&lt;/td&gt;&lt;/tr&gt;&lt;tr&gt;&lt;td&gt;name&lt;/td&gt;&lt;td style=&quot;text-align: right;&quot;&gt;varchar(30)&lt;/td&gt;&lt;/tr&gt;&lt;tr&gt;&lt;td&gt;description&lt;br&gt;&lt;/td&gt;&lt;td style=&quot;text-align: right;&quot;&gt;text&lt;/td&gt;&lt;/tr&gt;&lt;/tbody&gt;&lt;/table&gt;" style="verticalAlign=top;align=left;overflow=fill;html=1;strokeWidth=2;shadow=1;enumerate=0;comic=0;arcSize=12;" parent="1" vertex="1"><mxGeometry x="40" y="416.75" width="180" height="80" as="geometry"/></mxCell><mxCell id="7" value="&lt;div style=&quot;text-align: center; box-sizing: border-box; width: 100%; background: rgb(228, 228, 228); padding: 2px;&quot;&gt;&lt;b&gt;Orders&lt;/b&gt;&lt;/div&gt;&lt;table style=&quot;width:100%;font-size:1em;&quot; cellpadding=&quot;2&quot; cellspacing=&quot;0&quot;&gt;&lt;tbody&gt;&lt;tr&gt;&lt;td&gt;order_id&lt;/td&gt;&lt;td style=&quot;text-align: right;&quot;&gt;int&lt;/td&gt;&lt;/tr&gt;&lt;tr&gt;&lt;td&gt;date&lt;/td&gt;&lt;td style=&quot;text-align: right;&quot;&gt;datetime&lt;/td&gt;&lt;/tr&gt;&lt;tr&gt;&lt;td&gt;customername&lt;/td&gt;&lt;td style=&quot;text-align: right;&quot;&gt;varchar(30)&lt;/td&gt;&lt;/tr&gt;&lt;tr&gt;&lt;td&gt;comment&lt;br&gt;&lt;/td&gt;&lt;td style=&quot;text-align: right;&quot;&gt;text&lt;/td&gt;&lt;/tr&gt;&lt;tr&gt;&lt;td&gt;quantity&lt;br&gt;&lt;/td&gt;&lt;td style=&quot;text-align: right;&quot;&gt;int&lt;/td&gt;&lt;/tr&gt;&lt;tr&gt;&lt;td&gt;product_id&lt;/td&gt;&lt;td style=&quot;text-align: right;&quot;&gt;int&lt;/td&gt;&lt;/tr&gt;&lt;/tbody&gt;&lt;/table&gt;" style="verticalAlign=top;align=left;overflow=fill;html=1;strokeWidth=2;shadow=1;enumerate=0;comic=0;arcSize=12;" parent="1" vertex="1"><mxGeometry x="40" y="120" width="180" height="130" as="geometry"/></mxCell><mxCell id="8" value="" style="edgeStyle=orthogonalEdgeStyle;fontSize=12;html=1;endArrow=ERzeroToMany;startArrow=ERmandOne;rounded=0;entryX=1.004;entryY=0.303;entryDx=0;entryDy=0;entryPerimeter=0;exitX=-0.004;exitY=0.306;exitDx=0;exitDy=0;exitPerimeter=0;shadow=1;enumerate=0;comic=0;arcSize=12;" parent="1" source="5" target="2" edge="1"><mxGeometry width="100" height="100" relative="1" as="geometry"><mxPoint x="520" y="490" as="sourcePoint"/><mxPoint x="460" y="270" as="targetPoint"/><Array as="points"><mxPoint x="480" y="446"/><mxPoint x="480" y="172"/></Array></mxGeometry></mxCell><mxCell id="9" value="" style="edgeStyle=orthogonalEdgeStyle;fontSize=12;html=1;endArrow=ERoneToMany;startArrow=ERmandOne;rounded=0;exitX=1;exitY=0.272;exitDx=0;exitDy=0;entryX=0.999;entryY=0.842;entryDx=0;entryDy=0;entryPerimeter=0;exitPerimeter=0;shadow=1;enumerate=0;comic=0;arcSize=12;" parent="1" source="3" target="5" edge="1"><mxGeometry width="100" height="100" relative="1" as="geometry"><mxPoint x="530" y="420" as="sourcePoint"/><mxPoint x="630" y="320" as="targetPoint"/><Array as="points"><mxPoint x="720" y="287"/><mxPoint x="720" y="497"/></Array></mxGeometry></mxCell><mxCell id="10" value="" style="edgeStyle=orthogonalEdgeStyle;fontSize=12;html=1;endArrow=ERoneToMany;startArrow=ERmandOne;rounded=0;exitX=-0.005;exitY=0.347;exitDx=0;exitDy=0;entryX=-0.005;entryY=0.802;entryDx=0;entryDy=0;entryPerimeter=0;exitPerimeter=0;shadow=1;enumerate=0;comic=0;arcSize=12;" parent="1" source="4" target="3" edge="1"><mxGeometry width="100" height="100" relative="1" as="geometry"><mxPoint x="390" y="360" as="sourcePoint"/><mxPoint x="389.82000000000016" y="597.711" as="targetPoint"/><Array as="points"><mxPoint x="500" y="148"/><mxPoint x="500" y="340"/></Array></mxGeometry></mxCell><mxCell id="11" value="" style="edgeStyle=orthogonalEdgeStyle;fontSize=12;html=1;endArrow=ERoneToMany;startArrow=ERmandOne;rounded=0;exitX=1.001;exitY=0.341;exitDx=0;exitDy=0;exitPerimeter=0;entryX=-0.007;entryY=0.371;entryDx=0;entryDy=0;entryPerimeter=0;endFill=0;shadow=1;enumerate=0;comic=0;arcSize=12;" parent="1" source="6" target="2" edge="1"><mxGeometry width="100" height="100" relative="1" as="geometry"><mxPoint x="310" y="350" as="sourcePoint"/><mxPoint x="410" y="250" as="targetPoint"/><Array as="points"><mxPoint x="260" y="444"/><mxPoint x="260" y="183"/></Array></mxGeometry></mxCell><mxCell id="12" value="" style="edgeStyle=orthogonalEdgeStyle;fontSize=12;html=1;endArrow=ERmandOne;endFill=0;rounded=0;entryX=-0.004;entryY=0.16;entryDx=0;entryDy=0;entryPerimeter=0;startArrow=ERzeroToMany;startFill=0;shadow=1;enumerate=0;comic=0;arcSize=12;" parent="1" target="2" edge="1"><mxGeometry width="100" height="100" relative="1" as="geometry"><mxPoint x="220" y="236" as="sourcePoint"/><mxPoint x="410" y="250" as="targetPoint"/><Array as="points"><mxPoint x="240" y="236"/><mxPoint x="240" y="147"/></Array></mxGeometry></mxCell><mxCell id="14" value="&lt;b&gt;&lt;font style=&quot;font-size: 20px;&quot;&gt;ERD учёта оптового магазина&lt;/font&gt;&lt;/b&gt;" style="text;html=1;strokeColor=none;fillColor=none;align=center;verticalAlign=middle;whiteSpace=wrap;rounded=0;shadow=1;" parent="1" vertex="1"><mxGeometry x="80" y="40" width="380" height="40" as="geometry"/></mxCell></root></mxGraphModel></diagram></mxfile>